<svg width="44" height="32" viewBox="0 0 44 32" fill="none" xmlns="http://www.w3.org/2000/svg">
<g clip-path="url(#clip0_1_1372)">
<path d="M18.0469 20.0162C17.5389 19.8471 17.0744 19.5718 16.6855 19.2095C16.2967 18.8472 15.9927 18.4064 15.7946 17.9177C15.5965 17.4289 15.5091 16.9039 15.5382 16.3787C15.5674 15.8536 15.7126 15.3409 15.9637 14.8762L16.0416 14.7373L24.6082 0.220215H16.318C12.0092 0.220167 7.87579 1.89282 4.82174 4.87234C1.7677 7.85185 0.0416032 11.8957 0.0209961 16.1195C0.0905313 18.1499 0.833851 20.1027 2.13815 21.6815C3.44244 23.2603 5.23651 24.3789 7.24811 24.8676C9.25971 25.3562 11.379 25.1883 13.2844 24.3892C15.1898 23.5901 16.7773 22.2035 17.806 20.4399V20.4955" fill="url(#paint0_linear_1_1372)"/>
<path d="M30.3904 24.1071L36.6257 13.6395L41.1393 6.07539C41.9754 4.6862 42.8753 3.29702 43.6547 1.8592C43.7793 1.68287 43.8505 1.47564 43.8603 1.26134C43.87 1.04705 43.8179 0.834412 43.7098 0.647903C43.6017 0.461393 43.4421 0.308584 43.2493 0.207072C43.0566 0.10556 42.8385 0.0594645 42.6202 0.0740901H31.3469C30.9926 0.0740901 30.0715 -0.0926127 29.7597 0.0740901C29.448 0.240793 29.2354 0.956233 29.0937 1.19934L25.4162 7.4507L17.9267 20.1271L17.785 20.3702V20.3146C16.7563 22.0783 15.1689 23.4648 13.2635 24.2639C11.358 25.063 9.23874 25.2309 7.22714 24.7423C5.21554 24.2536 3.42147 23.135 2.11717 21.5562C0.812877 19.9774 0.0695574 18.0247 2.22203e-05 15.9942C-0.00588614 19.5028 1.16663 22.9157 3.33652 25.706C5.50642 28.4963 8.553 30.5087 12.0059 31.4325C15.4587 32.3564 19.1258 32.1402 22.4409 30.8175C25.7559 29.4948 28.5346 27.139 30.3478 24.114L30.3904 24.1071Z" fill="url(#paint1_linear_1_1372)"/>
</g>
<defs>
<linearGradient id="paint0_linear_1_1372" x1="12.3217" y1="-4.5586" x2="12.3217" y2="19.787" gradientUnits="userSpaceOnUse">
<stop stop-color="#2A59C4"/>
<stop offset="1" stop-color="#462CC6"/>
</linearGradient>
<linearGradient id="paint1_linear_1_1372" x1="0.0425361" y1="16.0081" x2="43.8389" y2="16.0081" gradientUnits="userSpaceOnUse">
<stop stop-color="#376DFE"/>
<stop offset="1" stop-color="#693CFF"/>
</linearGradient>
<clipPath id="clip0_1_1372">
<rect width="44" height="32" fill="white"/>
</clipPath>
</defs>
</svg>
