<svg width="105" height="34" viewBox="0 0 105 34" fill="none" xmlns="http://www.w3.org/2000/svg">
<path d="M46.524 11.096H38.684V15.744H46.3V19.44H38.684V27H34.82V7.4H46.524V11.096ZM50.9635 11.32C50.3662 11.32 49.8435 11.1053 49.3955 10.676C48.9662 10.228 48.7515 9.70533 48.7515 9.108C48.7515 8.51067 48.9662 7.988 49.3955 7.54C49.8435 7.092 50.3662 6.868 50.9635 6.868C51.5795 6.868 52.1022 7.092 52.5315 7.54C52.9795 7.988 53.2035 8.51067 53.2035 9.108C53.2035 9.70533 52.9795 10.228 52.5315 10.676C52.1022 11.1053 51.5795 11.32 50.9635 11.32ZM49.1715 27V13H52.7835V27H49.1715ZM64.0975 16.472H60.9335V22.296C60.9335 22.7813 61.0548 23.136 61.2975 23.36C61.5402 23.584 61.8948 23.7147 62.3615 23.752C62.8282 23.7707 63.4068 23.7613 64.0975 23.724V27C61.6148 27.28 59.8602 27.0467 58.8335 26.3C57.8255 25.5533 57.3215 24.2187 57.3215 22.296V16.472H54.8855V13H57.3215V10.172L60.9335 9.08V13H64.0975V16.472ZM86.2109 7.4V27H82.3749V14.288L76.8589 23.388H76.4109L70.8949 14.316V27H67.0309V7.4H71.0069L76.6349 16.668L82.2349 7.4H86.2109ZM92.747 21.484C93.2323 23.2387 94.5483 24.116 96.695 24.116C98.0763 24.116 99.1216 23.6493 99.831 22.716L102.743 24.396C101.362 26.3933 99.327 27.392 96.639 27.392C94.3243 27.392 92.467 26.692 91.067 25.292C89.667 23.892 88.967 22.128 88.967 20C88.967 17.8907 89.6576 16.136 91.039 14.736C92.4203 13.3173 94.1936 12.608 96.359 12.608C98.4123 12.608 100.102 13.3173 101.427 14.736C102.771 16.1547 103.443 17.9093 103.443 20C103.443 20.4667 103.396 20.9613 103.303 21.484H92.747ZM92.691 18.684H99.831C99.6256 17.732 99.1963 17.0227 98.543 16.556C97.9083 16.0893 97.1803 15.856 96.359 15.856C95.3883 15.856 94.5856 16.108 93.951 16.612C93.3163 17.0973 92.8963 17.788 92.691 18.684Z" fill="#111112"/>
<path fill-rule="evenodd" clip-rule="evenodd" d="M0 9.77414C0 5.49464 5.35289 4.55194 7.80629 8.05836C10.2648 11.572 11.7134 15.8468 11.7301 20.4596C11.7301 15.8873 13.1371 11.6443 15.5409 8.14121C17.8898 4.71815 23.0647 5.62268 23.0647 9.77415V15.2658C23.0647 21.6349 17.9015 26.7981 11.5324 26.7981C5.16321 26.7981 0 21.6349 0 15.2657V9.77414Z" fill="#1AC84B"/>
</svg>
